<?xml version="1.0" encoding="utf-8"?>
<!-- Generator: Adobe Illustrator 19.0.0, SVG Export Plug-In . SVG Version: 6.00 Build 0)  -->
<svg version="1.1" id="Слой_1" xmlns="http://www.w3.org/2000/svg" xmlns:xlink="http://www.w3.org/1999/xlink" x="0px" y="0px"
	 viewBox="0 0 113.4 99.2" style="enable-background:new 0 0 113.4 99.2;" xml:space="preserve">
<style type="text/css">
	.st0{fill:#fff;}
</style>
<path id="XMLID_108_" class="st0" d="M101.2,41c-1.7-1.9-4.3-2.6-6.8-2.5c0.1,2,0.6,3.9,2.4,5.7c1.5,1.8,3.8,3.1,6.3,3.7
	C103.6,45.4,103,42.8,101.2,41z"/>
<path id="XMLID_107_" class="st0" d="M106.2,40.6c-1.4,2.3-2,4.8-1.9,7.3c2.5-0.2,4.9-1.4,6.6-3.8c1.5-2.4,2.1-5.6,1.2-8.4
	C109.7,36.5,107.8,38.3,106.2,40.6z"/>
<path id="XMLID_106_" class="st0" d="M101.1,49c-1.5-2.2-3.8-3.4-6.2-3.7c-0.3,2,0,4,1.3,6s3.2,3.7,5.5,4.8
	C102.7,53.8,102.4,51.1,101.1,49z"/>
<path id="XMLID_105_" class="st0" d="M92.2,71.1c-0.1-2.6-1.4-4.8-3.3-6.4c-1.4,1.4-2,3.4-2.1,5.8c0,2.4,0.8,4.9,2.2,7
	C91,76,92.3,73.7,92.2,71.1z"/>
<path id="XMLID_104_" class="st0" d="M104.7,31.8c-0.9,2.5-1.2,5.1-0.5,7.5c2.4-0.6,4.5-2.2,5.8-4.9c1.1-2.7,1-5.9-0.3-8.5
	C107.5,27.1,105.8,29.2,104.7,31.8z"/>
<path id="XMLID_103_" class="st0" d="M96.5,64.3c-0.6-2.6-2.2-4.4-4.4-5.7c-1.1,1.6-1.4,3.7-1,6.1c0.5,2.4,1.7,4.7,3.5,6.4
	C96.2,69.4,97,66.8,96.5,64.3z"/>
<path id="XMLID_102_" class="st0" d="M106.1,49.5c-2,2-2.9,4.4-3.3,6.8c2.4,0.3,5.2-0.4,7.2-2.5s3-5.1,2.8-8
	C110.2,46.2,107.9,47.5,106.1,49.5z"/>
<path id="XMLID_101_" class="st0" d="M91.3,8.9c0.4,2.7,1.7,4.9,3.4,6.7c1.7-1.8,2.8-4.4,2.4-7.2c-0.3-2.9-2.2-5.5-4.6-7.1
	C91.3,3.5,90.8,6.2,91.3,8.9z"/>
<path id="XMLID_100_" class="st0" d="M102.5,30.9c2.3-1.1,4.1-3,4.8-5.9c0.7-2.9-0.1-5.9-1.8-8.3c-1.9,1.6-3.2,4-3.8,6.7
	C101.2,26,101.4,28.6,102.5,30.9z"/>
<path id="XMLID_99_" class="st0" d="M99.3,22.9c2.1-1.5,3.6-3.8,3.6-6.7c0.2-3-1.2-5.8-3.3-7.8c-1.6,1.9-2.5,4.6-2.5,7.3
	C97.2,18.4,97.9,20.9,99.3,22.9z"/>
<path id="XMLID_98_" class="st0" d="M98.8,63.9c1.4-2,1.6-4.7,0.7-7.1c-1.1-2.4-3.1-4-5.4-4.8c-0.8,1.8-0.7,3.9,0.1,6.1
	C95.2,60.5,96.7,62.5,98.8,63.9z"/>
<path id="XMLID_97_" class="st0" d="M84.1,9.7c1.9,1.5,4.3,2.2,6.8,2.3c0.1-2.5-1.1-5.1-3.3-6.8c-2.2-1.8-5-2.2-7.4-1.5
	C80.9,6.1,82.2,8.1,84.1,9.7z"/>
<path id="XMLID_96_" class="st0" d="M86.7,77c0.4-2.5-0.5-5-2.1-6.9c-1.6,1.2-2.6,3-3.1,5.4c-0.4,2.3-0.1,5,1,7.3
	C84.6,81.6,86.4,79.6,86.7,77z"/>
<path id="XMLID_95_" class="st0" d="M92.8,31.8c0.4,1.9,1.4,3.7,3.4,5.2c1.9,1.5,4.4,2.4,6.9,2.5c0-2.4-1-4.9-3.2-6.4
	C97.9,31.5,95.2,31.2,92.8,31.8z"/>
<path id="XMLID_94_" class="st0" d="M93.1,18.6c-2.5-0.6-5-0.1-7.1,1.4c1,1.7,2.7,2.9,5,3.6c2.4,0.6,5,0.6,7.3-0.2
	C97.5,21.1,95.6,19.2,93.1,18.6z"/>
<path id="XMLID_93_" class="st0" d="M97.2,25.5c-2.3-1.1-4.9-0.9-7.2,0.1c0.7,1.9,2.1,3.4,4.2,4.5s4.8,1.5,7.2,1.2
	C101,28.8,99.6,26.6,97.2,25.5z"/>
<path id="XMLID_92_" class="st0" d="M86.7,17.8c2.5,0.2,5-0.3,7.2-1.5c-1.1-2.2-3.4-3.6-6-3.8s-4.9,0.9-6.7,2.6
	C82.4,16.7,84.3,17.5,86.7,17.8z"/>
<path id="XMLID_91_" class="st0" d="M75.4,79.3c-0.9,2.2-1,4.9-0.4,7.3c2.3-0.7,4.4-2.4,5.2-4.9c0.9-2.4,0.4-5-0.9-7.2
	C77.7,75.6,76.3,77,75.4,79.3z"/>
<path id="XMLID_90_" class="st0" d="M96.1,74.1c-2.6,0.8-4.8,2.2-6.3,4.1c2,1.6,4.6,2.3,7.4,1.6c2.9-0.7,5.2-2.8,6.6-5.4
	C101.5,73.5,98.7,73.4,96.1,74.1z"/>
<path id="XMLID_89_" class="st0" d="M90,80.7c-2.7,0.3-5.1,1.3-6.9,3c1.7,1.9,4.1,3,7,2.9c2.9-0.2,5.7-1.8,7.4-4.1
	C95.5,81,92.8,80.4,90,80.7z"/>
<path id="XMLID_88_" class="st0" d="M75.5,87.7c1.3,2.1,3.4,3.7,6.4,4.1c2.9,0.3,5.9-0.7,8-2.7c-1.8-1.7-4.3-2.7-7.1-3
	C80.2,85.9,77.6,86.4,75.5,87.7z"/>
<path id="XMLID_87_" class="st0" d="M74.6,88.2l-0.5-1.3c-3.9,2-11.2,3.5-16.7,3.5c-0.2,0-0.5,0-0.7,0s-0.5,0-0.7,0
	c-5.5,0-12.8-1.5-16.7-3.5l-0.5,1.3c3.1,1.2,6.3,2.1,9.6,2.6c-6.8,0.8-12.6,2.8-17.9,5.8c0.8,0.4,1.6,1.3,1.9,2.1
	c7.3-5,14.8-7,24.4-7s17.1,2,24.4,7c0.3-0.8,1.1-1.7,1.9-2.1c-5.3-3-11.1-5-17.9-5.8C68.2,90.3,71.5,89.4,74.6,88.2z"/>
<path id="XMLID_86_" class="st0" d="M100.9,66.6c-2.5,1.2-4.2,3.1-5.5,5.2c2.2,1.2,5,1.5,7.6,0.2c2.7-1.2,4.6-3.7,5.5-6.5
	C106.1,65,103.3,65.4,100.9,66.6z"/>
<path id="XMLID_85_" class="st0" d="M99.8,64.4c2.4,0.7,5.2,0.5,7.5-1.2c2.4-1.7,3.9-4.5,4.2-7.4c-2.5-0.1-5.2,0.8-7.3,2.5
	C102,59.9,100.7,62.1,99.8,64.4z"/>
<path id="XMLID_84_" class="st0" d="M10.4,56.4C10,54,9.1,51.6,7.1,49.6c-1.8-2-4.2-3.4-6.7-3.8c-0.3,2.9,0.7,5.9,2.8,8
	C5.2,55.9,8,56.6,10.4,56.4z"/>
<path id="XMLID_83_" class="st0" d="M10.7,30.9c1.1-2.2,1.3-4.8,0.8-7.5s-1.9-5.1-3.8-6.7C6,19.1,5.2,22.1,5.9,25
	C6.6,27.8,8.4,29.8,10.7,30.9z"/>
<path id="XMLID_82_" class="st0" d="M8.9,47.9c0.1-2.5-0.5-5-1.9-7.3c-1.6-2.3-3.5-4.1-5.9-4.9c-0.9,2.8-0.3,6,1.2,8.4
	C4,46.5,6.5,47.7,8.9,47.9z"/>
<path id="XMLID_81_" class="st0" d="M9,39.3c0.7-2.4,0.4-5-0.5-7.5c-1.1-2.6-2.8-4.7-4.9-5.9c-1.3,2.6-1.4,5.8-0.3,8.5
	C4.5,37.1,6.6,38.7,9,39.3z"/>
<path id="XMLID_80_" class="st0" d="M21.9,8.9c0.5-2.7,0.1-5.4-1.2-7.6c-2.4,1.7-4.3,4.2-4.6,7.1c-0.5,2.9,0.6,5.4,2.4,7.2
	C20.1,13.8,21.5,11.6,21.9,8.9z"/>
<path id="XMLID_79_" class="st0" d="M13.9,22.9c1.4-2,2.2-4.5,2.2-7.2s-1-5.4-2.5-7.3c-2,2-3.5,4.9-3.3,7.8
	C10.3,19.1,11.8,21.4,13.9,22.9z"/>
<path id="XMLID_78_" class="st0" d="M37.7,87.7c-2.1-1.3-4.6-1.8-7.3-1.7c-2.8,0.3-5.3,1.3-7.1,3c2.1,2,5.2,3,8,2.7
	C34.2,91.4,36.4,89.8,37.7,87.7z"/>
<path id="XMLID_77_" class="st0" d="M5.8,63.2c2.3,1.7,5.2,1.9,7.5,1.2c-0.9-2.3-2.2-4.5-4.4-6.1c-2.1-1.7-4.8-2.6-7.3-2.5
	C2,58.7,3.4,61.6,5.8,63.2z"/>
<path id="XMLID_76_" class="st0" d="M30.1,83.6c-1.8-1.7-4.2-2.6-6.9-3c-2.8-0.2-5.4,0.3-7.5,1.7c1.8,2.3,4.5,4,7.4,4.1
	C26,86.7,28.4,85.6,30.1,83.6z"/>
<path id="XMLID_75_" class="st0" d="M17.7,71.8c-1.2-2.1-3-4-5.5-5.2C9.8,65.3,7,65,4.6,65.5c0.9,2.8,2.8,5.3,5.5,6.5
	C12.8,73.3,15.5,73,17.7,71.8z"/>
<path id="XMLID_74_" class="st0" d="M23.4,78.3c-1.5-1.9-3.7-3.3-6.3-4.1c-2.6-0.8-5.4-0.6-7.7,0.3c1.4,2.6,3.7,4.7,6.6,5.4
	C18.8,80.6,21.4,79.9,23.4,78.3z"/>
<path id="XMLID_73_" class="st0" d="M17,51.3c1.3-2.1,1.7-4.1,1.3-6c-2.4,0.4-4.8,1.5-6.2,3.7c-1.3,2.1-1.6,4.8-0.6,7.1
	C13.9,55.1,15.7,53.4,17,51.3z"/>
<path id="XMLID_72_" class="st0" d="M33.8,74.6c-1.2,2.2-1.7,4.8-0.9,7.2c0.8,2.5,2.9,4.1,5.2,4.9c0.6-2.4,0.5-5.1-0.4-7.3
	C36.9,77,35.5,75.6,33.8,74.6z"/>
<path id="XMLID_71_" class="st0" d="M17.1,36.9c2-1.4,3-3.2,3.4-5.2c-2.4-0.6-5.1-0.3-7.1,1.3c-2.2,1.5-3.1,4-3.2,6.4
	C12.7,39.3,15.2,38.4,17.1,36.9z"/>
<path id="XMLID_70_" class="st0" d="M10.1,47.8c2.5-0.6,4.7-1.9,6.3-3.7c1.8-1.8,2.3-3.7,2.4-5.7c-2.4-0.1-5.1,0.6-6.8,2.5
	C10.2,42.8,9.6,45.4,10.1,47.8z"/>
<path id="XMLID_69_" class="st0" d="M11.8,31.2c2.4,0.3,5.1-0.1,7.2-1.2s3.6-2.6,4.2-4.5c-2.3-1-4.9-1.2-7.2-0.1
	C13.6,26.6,12.2,28.8,11.8,31.2z"/>
<path id="XMLID_68_" class="st0" d="M22.2,23.6c2.2-0.7,4-1.9,5-3.6c-2.1-1.4-4.6-2-7.1-1.4s-4.4,2.6-5.2,4.8
	C17.3,24.2,19.9,24.2,22.2,23.6z"/>
<path id="XMLID_67_" class="st0" d="M24.2,77.5c1.4-2,2.2-4.5,2.3-7c0-2.4-0.7-4.4-2.1-5.8c-2,1.6-3.3,3.8-3.3,6.4
	C20.9,73.7,22.2,76,24.2,77.5z"/>
<path id="XMLID_66_" class="st0" d="M22.1,64.7c0.4-2.3,0.2-4.4-1-6.1c-2.2,1.2-3.8,3.1-4.4,5.7c-0.5,2.5,0.2,5.1,2,6.8
	C20.4,69.4,21.6,67.1,22.1,64.7z"/>
<path id="XMLID_65_" class="st0" d="M19,58.2c0.8-2.2,0.9-4.3,0.2-6.1c-2.3,0.8-4.4,2.4-5.4,4.8c-0.9,2.3-0.7,5.1,0.7,7.1
	C16.5,62.5,18,60.5,19,58.2z"/>
<path id="XMLID_64_" class="st0" d="M29.1,9.7c1.9-1.6,3.2-3.6,3.9-6c-2.4-0.6-5.2-0.2-7.4,1.5s-3.4,4.3-3.3,6.8
	C24.8,11.9,27.2,11.2,29.1,9.7z"/>
<path id="XMLID_63_" class="st0" d="M30.7,82.7c1-2.2,1.4-4.9,1-7.3c-0.4-2.3-1.5-4.2-3.1-5.4c-1.6,1.9-2.6,4.4-2.1,6.9
	C26.8,79.6,28.6,81.6,30.7,82.7z"/>
<path id="XMLID_62_" class="st0" d="M25.3,12.5c-2.5,0.2-4.8,1.7-6,3.8c2.2,1.2,4.7,1.7,7.2,1.5c2.4-0.3,4.3-1.1,5.5-2.7
	C30.3,13.4,28,12.3,25.3,12.5z"/>
<path id="XMLID_58_" class="st0" d="M82.6,27.1c0,0-13-8.9-26-8.9c-12.9,0-25.8,8.9-25.8,8.9s-2,26.9,5.1,33.8S57,75.8,57,75.8
	s14.6-9.1,20.5-14.9S82.6,27.1,82.6,27.1z M73.6,57.8C68.8,62.5,57,69.9,57,69.9s-11.3-6.4-17.1-12.1s-4.1-27.4-4.1-27.4
	s10.4-7.3,20.9-7.3s21,7.3,21,7.3S78.4,53.1,73.6,57.8z"/>
<g id="XMLID_56_">
	<path id="XMLID_57_" class="st0" d="M45.7,44.2c0-1.8,0.3-3.5,0.8-5.1c0.5-1.6,1.3-3.1,2.3-4.2c1-1.3,2.2-2.2,3.6-2.9
		c1.4-0.7,3-1.1,4.8-1.1c2.3,0,4.3,0.6,5.9,1.8c1.6,1.2,2.9,2.7,3.7,4.7l-4.6,1.7c-0.5-1.1-1.3-2-2.2-2.5c-0.9-0.6-1.9-0.9-3.1-0.9
		c-0.9,0-1.8,0.2-2.6,0.6c-0.8,0.4-1.5,1-2.1,1.8c-0.6,0.8-1.1,1.7-1.4,2.8c-0.4,1.1-0.5,2.2-0.5,3.5s0.2,2.4,0.5,3.5
		c0.4,1.1,0.8,2,1.4,2.8c0.6,0.8,1.3,1.4,2.2,1.9c0.8,0.4,1.7,0.6,2.6,0.6c0.5,0,1.2-0.1,1.7-0.3c0.5-0.2,1.1-0.4,1.5-0.8
		c0.4-0.4,0.9-0.7,1.3-1.2s0.6-0.9,0.8-1.3l4.6,1.6c-0.7,2-2,3.5-3.7,4.8c-1.7,1.3-3.8,1.9-6.1,1.9c-1.7,0-3.3-0.4-4.8-1.1
		s-2.6-1.7-3.6-3s-1.8-2.7-2.3-4.3C46,47.8,45.7,46,45.7,44.2z"/>
</g>
</svg>
