<?xml version="1.0" encoding="utf-8"?>
<!-- Generator: Adobe Illustrator 21.0.2, SVG Export Plug-In . SVG Version: 6.00 Build 0)  -->
<svg version="1.1" id="Слой_1" xmlns="http://www.w3.org/2000/svg" xmlns:xlink="http://www.w3.org/1999/xlink" x="0px" y="0px"
	 viewBox="0 0 561.1 139.1" style="enable-background:new 0 0 561.1 139.1;" xml:space="preserve">
<path style="fill:#703735;" d="M319.3,85.9c-0.6,0.2-1.2,0.5-1.8,0.6c-4.9,1-9.9,1.9-14.8,3c-1.5,0.3-2.3-0.2-2.8-1.5
	c-0.7-1.6-1.5-3.2-1.8-4.9c-0.5-2.7-1-5.5-1-8.3c-0.1-19.4,0-38.7,0-58.1c0-6.3-1.9-9-7.7-11.3c-0.7-0.3-1.4-0.6-1.9-1
	c-1.7-1.3-1.4-3.4,0.6-4.1c0.7-0.3,1.6-0.3,2.3-0.3c13.6,0,27.2-0.2,40.8,0c20.2,0.3,36,13.6,40.1,33.4c1.9,9.6,1.7,19.1-1.7,28.4
	c-3,8-8.1,14.5-14.8,19.7c-7.5,5.8-16,9.5-24.9,12.6c-8,2.8-16.2,4.3-24.6,5.3c-20.1,2.4-40.2,2.6-60.4,1.9
	c-15.9-0.6-31.8-1.4-47.7-2.3c-10.7-0.6-21.4-1.4-32.1-2.1c-11.2-0.7-22.3-1.5-33.5-2.2c-13.7-0.7-27.5-1.4-41.2-0.6
	c-1.2,0.1-2.4,0.3-3.6,0.3c-0.5,0-1.2-0.2-1.4-0.5c-0.4-0.8,0.3-1.1,1-1.3c4.2-1.2,8.4-2.6,12.6-3.7c22.2-5.9,44.8-8.2,67.7-7.2
	c13.5,0.6,26.9,2.3,40.3,4.5c14.9,2.4,29.8,5,44.7,7.2c14.4,2.1,28.8,2.9,43.3,1.6c9.7-0.8,19.2-2.6,28.5-5.4c1-0.3,2-0.7,2.9-1
	c12.4-4.6,20.2-13.2,23-26.1c2-9.2,2.5-18.4,0.3-27.6c-1.2-5-3.2-9.7-6.4-13.8c-5.8-7.5-13.5-10.4-22.8-9.4
	c-0.9,0.1-1.7,0.3-2.6,0.6c-2.4,0.8-3.2,1.8-3.2,4.4c0,17.1,0,34.2,0,51.4c0,5.9,1.1,11.6,4,16.9C319.1,85.2,319.1,85.5,319.3,85.9z
	"/>
<path style="fill:#703735;" d="M481.8,29.2c0.5-0.5,0.9-0.7,1.1-1c2.6-3.8,5.4-7.6,7.7-11.5c2.2-3.7,1-6.6-2.9-8.3
	c-1.2-0.5-2.6-0.9-3.8-1.5c-0.9-0.4-1.7-0.9-2.4-1.5c-0.8-0.7-0.8-1.7-0.6-2.7c0.3-1.1,1.1-1.6,2.1-1.7c0.6-0.1,1.1-0.1,1.7-0.1
	c6.8,0,13.6,0,20.4,0c1.3,0,2.6,0.2,3.7,0.6c2.1,0.8,2.9,2.4,2.2,4.6c-0.4,1.4-1.1,2.7-1.8,3.9c-6,10.6-12.8,20.7-21.1,29.6
	c-0.2,0.2-0.4,0.5-0.6,0.8c0.1,0.3,0.1,0.6,0.3,0.9c5.7,11,11.5,22,17.1,33c2.2,4.3,5.4,7.4,9.9,9.3c1.2,0.5,2.3,1.1,3.4,1.8
	c1.4,0.9,1.8,1.7,1.5,3c-0.3,1.4-1.4,1.6-2.6,1.7c-0.6,0.1-1.1,0.1-1.7,0.1c-5.6,0-11.2,0-16.8,0c-3.9,0-6.8-1.3-8.7-4.9
	c-4.6-8.7-9.3-17.3-14-26c-1-1.9-2-3.8-3-5.7c-0.4,0.2-0.6,0.3-0.8,0.5c-4.5,5.1-8.8,10.4-11.9,16.5c-0.7,1.4-1.4,2.9-1.8,4.4
	c-0.9,3.1,0,5.1,2.9,6.5c1.6,0.8,3.4,1.3,5.1,2c1.2,0.5,2.5,1.1,3.5,1.9c1.5,1.3,1.2,3.3-0.7,4c-1.2,0.4-2.5,0.6-3.8,0.6
	c-7,0.1-13.9,0-20.9,0c-0.8,0-1.6-0.1-2.4-0.2c-3.4-0.6-5.1-2.8-4.4-6.1c0.5-2.3,1.3-4.6,2.5-6.7c3.6-6.8,8.2-13,13-19
	c4.1-5.1,8.4-10.1,12.6-15.1c1.1-1.2,1.3-2.2,0.5-3.6c-3.8-7.1-7.6-14.3-11.4-21.3c-1.8-3.2-4.5-5.6-7.7-7.4
	c-2.4-1.4-4.8-2.6-7.2-3.9c-0.7-0.4-1.4-0.8-2-1.2c-0.9-0.6-1.3-1.4-1.1-2.5c0.2-1.1,0.9-1.7,1.8-2c0.8-0.2,1.7-0.3,2.6-0.3
	c6.8,0,13.6,0.1,20.4,0c2.7,0,4.9,1,6.5,3c1.5,1.9,2.8,3.9,3.9,6c2.8,5.5,5.4,11,8.1,16.6C480.8,27.3,481.2,28.1,481.8,29.2z"/>
<path style="fill:#703735;" d="M395.7,44.3c0.5-0.3,1-0.4,1.2-0.6c3.5-4.5,8.4-6.5,13.8-7.4c2.9-0.5,5.9-0.8,8.8-1.1
	c2.6-0.2,3.9,0.9,3.6,3.5c-0.4,2.9-1.2,5.8-2.1,8.6c-0.7,2-2.4,2.8-4.5,2.8c-5.1-0.1-10.2,0-15.4,0c-0.7,0-1.4,0-2.2,0.1
	c-1.9,0.2-2.7,1-2.9,2.9c0,0.3,0,0.6,0,1c0,5.6-0.1,11.2,0,16.8c0.1,3.8,1.8,6.1,5.5,7.2c1.4,0.4,3,0.8,4.5,0.7
	c3.9-0.1,7.8-0.3,11.7-0.7c4-0.5,7.2-2.5,9.8-5.6c1.5-1.8,2.7-3.7,4.1-5.6c1-1.4,2.1-2.6,3.7-3.3c2.1-0.9,3.4,0,3.1,2.3
	c-0.4,3.1-1.1,6.1-1.7,9.2c-0.6,3.1-1.2,6.3-1.9,9.4c-0.2,0.9-0.4,1.9-0.8,2.8c-0.7,1.7-1.9,2.8-3.7,3c-0.9,0.1-1.8,0.2-2.6,0.2
	c-14.1,0-28.2,0-42.2,0c-5.9,0-7.5-1.6-7.4-7.4c0.1-21.8,0.2-43.7,0.3-65.5c0-2.3-0.3-4.5-1.6-6.4c-1.4-2.1-3.1-3.6-5.6-4.2
	c-0.8-0.2-1.5-0.5-2.2-0.8c-1-0.6-1.4-1.5-1.3-2.6c0.1-1.1,0.9-1.7,1.8-2C370.2,1,371,1,371.8,1c17.8,0,35.5,0,53.3,0
	c3.2,0,4.4,1.1,4.5,4.2c0.3,5.5,0.5,11,0.8,16.5c0,0.9-0.1,1.9-0.3,2.8c-0.1,0.8-0.6,1.6-1.6,1.5c-0.6-0.1-1.3-0.6-1.7-1.1
	c-1.1-1.6-2.1-3.2-3.1-4.9c-3.7-5.9-9.2-8.7-16.1-8.6c-2.5,0-5,0-7.4,0c-2.9,0.1-4.1,1.1-4.1,3.9c-0.3,9.3-0.4,18.5-0.6,27.8
	C395.4,43.6,395.6,43.8,395.7,44.3z"/>
<path style="fill:#D6B46D;" d="M273.2,120.5c-1.1,0.6-2.1,1.3-3.2,2c-9,5.1-18.7,8.3-28.7,10.6c-11.1,2.6-22.3,4-33.7,4.9
	c-19.7,1.5-39.3,1.4-59,0.5c-12.8-0.6-25.6-1.3-38.3-2.1c-11.5-0.7-23-1.7-34.4-2.6c-19.9-1.4-39.7-3.1-59.7-2.6
	c-4.7,0.1-9.4,0.6-14.1,0.9c-0.7,0-1.8,0.6-2.1-0.5c-0.3-1.2,0.9-1.1,1.6-1.3c11.8-3.6,23.8-6.3,36-8.2c15.5-2.3,31.2-3.3,46.9-2.8
	c11.3,0.4,22.7,1.1,34,2.2c17.2,1.7,34.3,3.9,51.5,5.7c16.2,1.7,32.5,2.7,48.9,2.1c17.6-0.7,34.8-3.6,51.5-9.4
	c0.6-0.2,1.2-0.5,1.8-0.6C272.6,119.1,272.6,119.2,273.2,120.5z"/>
<path style="fill:#965046;" d="M43.3,113.9c-0.5-1.7,0.6-1.7,1.4-1.9c4.7-1.3,9.4-2.7,14.1-3.9c24.8-6.1,50-8,75.5-6.9
	c16.6,0.7,33,2.5,49.4,4.3c15.1,1.7,30.2,3.4,45.3,4.7c15.6,1.3,31.3,1.4,47-0.4c12.7-1.4,25.2-4.1,37.4-8.3
	c0.7-0.3,1.5-0.5,2.3-0.8c0.6,0.6,1,1.2,0.1,1.8c-0.7,0.5-1.4,0.8-2.1,1.2c-8.4,4.7-17.5,7.8-26.9,10c-10.4,2.5-20.9,3.9-31.5,4.9
	c-20,1.8-40.1,1.8-60.2,1c-11.6-0.4-23.2-1-34.7-1.7c-12.4-0.7-24.7-1.7-37.1-2.5c-21.7-1.5-43.4-3.2-65.2-2.7
	c-4.1,0.1-8.3,0.6-12.4,0.9C45,113.8,44.2,113.8,43.3,113.9z"/>
<path style="fill:#703735;" d="M130.1,77.7c-6.9,1.2-13.4,2.2-20.2,3.4c0-1-0.1-1.8-0.1-2.6c0.1-19.7,0.2-39.4,0.3-59
	c0-1.1,0-2.2,0-3.4c-0.1-3.8-1.9-6.5-5.2-8.3c-1.1-0.6-2.4-1-3.5-1.5c-1.4-0.6-2.1-1.5-2-2.7c0.1-1.1,1-2.1,2.3-2.4
	c0.6-0.1,1.3-0.1,1.9-0.1c12.8,0,25.6,0,38.4,0c4.2,0,8.3,0.7,12.2,2.3c8.4,3.5,13,9.9,13.7,18.9c0.2,2.8,0.2,5.6-0.2,8.4
	c-1.2,7.8-5.5,13.5-12.1,17.5c-5.3,3.2-11.1,4.9-17.1,6.2c-1.6,0.3-3.3,0.6-4.9,1c-0.9,0.2-1.7,0.4-2.5,0.7
	c-2.1,0.8-3.2,2.2-3.2,4.6C127.8,66.3,127.7,72,130.1,77.7z M127.2,51.3c1.4,0.5,1.7-0.5,2.1-1.1c1.6-2.1,3.6-3.8,6-5
	c2.3-1.2,4.6-2.5,6.9-3.9c4-2.6,6.3-6.3,6.8-11c0.4-3.5,0.1-6.9-1.3-10.1c-1.8-4.3-5.1-6.9-9.8-7.5c-1.8-0.2-3.7-0.2-5.5,0
	c-3.5,0.4-4.6,1.5-4.7,5.1c-0.2,10.5-0.4,21.1-0.6,31.7C127.2,50,127.2,50.6,127.2,51.3z"/>
<path style="fill:#703735;" d="M257.1,41.6c0.4-0.7,0.8-1.3,1.2-2c2.7-5.3,5.4-10.7,8.1-16.1c1.5-3.1,2.2-6.4,1.7-9.8
	c-0.5-3.3-2.3-5.5-5.6-6.5c-0.8-0.2-1.5-0.5-2.2-0.9c-1.1-0.7-1.7-1.7-1.5-3.1c0.2-1.4,1.2-2,2.5-2.2c0.8-0.1,1.6-0.2,2.4-0.2
	c4.3,0,8.6,0,13,0c5.7,0,8.6,3.2,8.2,9c-0.2,2.6-0.9,5-2.2,7.3c-6.3,11.9-12.6,23.9-19,35.8c-1.4,2.6-2.1,5.3-2.1,8.3
	c0.1,4.6,0.1,9.3,0.4,13.9c0.1,1.9,0.7,3.8,1.1,5.6c0.7,2.8,2.6,4.6,5.2,5.5c1.4,0.5,2.9,0.7,4.4,1.1c0.9,0.3,2.4,0.2,2.2,1.6
	c-0.2,1.3-1.6,1.1-2.6,1.1c-1.9-0.1-3.8-0.2-5.7-0.3c-6.7-0.5-13.4-1.3-19.9-2.8c-2.8-0.6-2.9-0.8-2.9-3.7c0-8.6,0-17.1,0-25.7
	c0-2-0.4-3.8-1.4-5.5C235.7,39.8,229,27.4,222.3,15c-1.2-2.2-2.8-3.9-4.9-5c-1.4-0.8-2.9-1.5-4.2-2.3c-1-0.6-2-1.4-2.8-2.3
	c-1.4-1.7-0.4-4,1.7-4.4c0.3-0.1,0.6-0.1,1-0.1c5.6,0,11.2,0,16.8,0c4,0,7.1,1.9,9.2,5.2c0.7,1.1,1.3,2.4,1.9,3.6
	c4.6,9.7,9.3,19.5,13.9,29.2c0.4,0.9,1,1.7,1.5,2.6C256.6,41.6,256.8,41.6,257.1,41.6z"/>
<path style="fill:#703735;" d="M177.8,77.2c0-1-0.1-2.1-0.1-3.1c0.1-18.4,0.2-36.8,0.3-55.2c0-1,0-1.9,0-2.9c0-3.7-1.7-6.4-4.9-8.2
	c-1.2-0.7-2.6-1.1-4-1.7c-1.3-0.6-1.9-1.5-1.8-2.8c0.1-1.2,0.9-2,2.4-2.3c0.5-0.1,1.1-0.1,1.7-0.1c6,0,12,0,18,0
	c1.6,0,3,0.4,4.2,1.4c1.3,1.1,2.1,2.4,2.1,4.1c0,0.7,0,1.4,0,2.2c0,20.9,0,41.8,0,62.6c0,4.8,0.8,5.5,5.6,5.6c2.6,0,5.3,0,7.9,0
	c4.4,0.1,7.9-1.8,10.5-5.2c2.2-2.9,3.6-6.2,4.8-9.6c0.3-1,0.8-2,1.4-2.8c0.8-1,1.9-1.5,3.2-1.1c1.2,0.3,1.6,1.4,1.6,2.4
	c0.1,2.1,0.1,4.2,0,6.2c-0.2,4.6-0.5,9.3-0.8,13.9c-0.2,2.8-0.8,3.2-3.5,2.8c-10.9-1.5-21.8-3.1-32.8-4.5c-4.8-0.6-9.5-1-14.3-1.5
	C179,77.4,178.5,77.3,177.8,77.2z"/>
<path style="fill:#703735;" d="M561.1,22c0,11.2-9.2,20.3-20.4,20.2c-11.2-0.1-20.1-9.3-20.1-20.5c0.1-11,9.2-20.1,20.3-20.1
	C552.1,1.7,561.1,10.8,561.1,22z M523.4,21.9c0,9.7,7.8,17.6,17.5,17.6c9.7,0,17.6-7.9,17.5-17.6c0-9.6-7.8-17.4-17.4-17.5
	C531.3,4.4,523.5,12.2,523.4,21.9z"/>
<path style="fill:#FFFFFF;" d="M127.2,51.3c0-0.7,0-1.3,0-2c0.2-10.6,0.4-21.1,0.6-31.7c0.1-3.5,1.1-4.7,4.7-5.1
	c1.8-0.2,3.7-0.2,5.5,0c4.7,0.6,7.9,3.2,9.8,7.5c1.3,3.2,1.7,6.6,1.3,10.1c-0.5,4.7-2.8,8.5-6.8,11c-2.2,1.4-4.5,2.7-6.9,3.9
	c-2.4,1.2-4.4,2.9-6,5C128.9,50.8,128.6,51.8,127.2,51.3z"/>
<path style="fill:#FFFFFF;" d="M523.4,21.9c0-9.7,7.9-17.5,17.6-17.4c9.6,0.1,17.4,7.9,17.4,17.5c0,9.7-7.8,17.6-17.5,17.6
	C531.2,39.5,523.4,31.6,523.4,21.9z M536,24.2c2.4-0.5,3.7,0.3,4.7,2.1c1.2,2.2,2.4,4.3,3.6,6.5c0.3,0.6,0.9,1.2,1.5,1.3
	c1.2,0.2,2.4,0,4,0c-2.1-3.9-3.5-7.7-6.4-10.5c4-2,5.3-4.3,4.7-8.5c-0.4-2.9-2-4.8-4.9-5c-3.6-0.3-7.3-0.1-10.9-0.1
	c-0.5,2.3-0.5,22.3,0.1,24c1.2,0,2.3,0,3.7,0C536,30.6,536,27.5,536,24.2z"/>
<path style="fill:#703735;" d="M536,24.2c0,3.2,0,6.4,0,9.8c-1.3,0-2.5,0-3.7,0c-0.5-1.7-0.6-21.7-0.1-24c3.6,0,7.3-0.2,10.9,0.1
	c2.9,0.2,4.5,2.1,4.9,5c0.6,4.2-0.6,6.4-4.7,8.5c2.9,2.9,4.3,6.6,6.4,10.5c-1.6,0-2.8,0.2-4,0c-0.6-0.1-1.1-0.8-1.5-1.3
	c-1.3-2.1-2.5-4.3-3.6-6.5C539.7,24.5,538.4,23.7,536,24.2z M536.1,20.2c2.1-0.1,4.1-0.1,6-0.4c1.4-0.2,2.1-1.5,2-3.1
	c-0.1-1.5-0.9-2.6-2.2-2.7c-1.9-0.1-3.8,0-5.8,0C536.1,16.1,536.1,18,536.1,20.2z"/>
<path style="fill:#FFFFFF;" d="M536.1,20.2c0-2.2,0-4.1,0-6.1c2,0,3.9-0.1,5.8,0c1.4,0.1,2.2,1.2,2.2,2.7c0.1,1.6-0.6,2.9-2,3.1
	C540.2,20.1,538.2,20.1,536.1,20.2z"/>
</svg>
